<?xml version="1.0" encoding="UTF-8"?>
<svg width="77px" height="90px" viewBox="0 0 77 90" version="1.1" xmlns="http://www.w3.org/2000/svg" xmlns:xlink="http://www.w3.org/1999/xlink">
    <!-- Generator: Sketch 52.2 (67145) - http://www.bohemiancoding.com/sketch -->
    <title>Knockout Coin</title>
    <desc>Created with Sketch.</desc>
    <g id="Website" stroke="none" stroke-width="1" fill="none" fill-rule="evenodd">
        <g id="Desktop-HD" transform="translate(-682.000000, -30.000000)">
            <g id="header" transform="translate(48.000000, 30.000000)">
                <g id="Knockout-Coin" transform="translate(634.000000, 0.000000)">
                    <g id="Cents">
                        <g id="Group" transform="translate(0.000000, 1.839864)" fill="#E7E7E7" opacity="0.5">
                            <path d="M57.8503721,3.41370099 C64.223862,5.46675982 69.9270165,9.00534805 74.5514825,13.6228775 L76.840381,11.3368775 C71.618765,6.12217158 65.1179962,2.18440687 57.8503721,0.027583345 L57.8503721,3.41370099 Z" id="Path"></path>
                            <path d="M14.3252379,10.2134657 L16.6162577,12.5005245 C21.020107,8.4314657 26.3021805,5.29628923 32.1485237,3.41370099 L32.1485237,0.0286421686 C25.412289,2.02664217 19.3357831,5.55570099 14.3252379,10.2134657 Z" id="Path"></path>
                            <path d="M57.8503721,11.6629951 C62.0770916,13.385701 65.8816695,15.9342892 69.0604595,19.1044069 L71.3482973,16.8194657 C67.5649326,13.0426422 62.9712257,10.073701 57.8503721,8.19640687 L57.8503721,11.6629951 Z" id="Path"></path>
                            <path d="M18.6516592,16.8194657 C11.9101212,23.5504069 7.73961654,32.8500539 7.73961654,43.121701 C7.73961654,53.3922892 11.9101212,62.6919363 18.6516592,69.4239363 C22.4371452,73.199701 27.0287308,76.1686422 32.1485237,78.0459363 L32.1485237,74.5793481 C27.9218042,72.857701 24.118287,70.3091128 20.9416183,67.1379363 C14.7845025,60.9925245 10.9767427,52.5007598 10.9767427,43.121701 C10.9767427,33.7426422 14.7845025,25.2498186 20.9416183,19.1044069 C24.118287,15.9342892 27.9218042,13.385701 32.1485237,11.6629951 L32.1485237,8.19640687 C27.0287308,10.0747598 22.4371452,13.0426422 18.6516592,16.8194657 Z" id="Path"></path>
                            <path d="M3.55271368e-14,41.5059363 L3.24030815,41.5059363 C3.6316907,31.2046422 7.76719363,21.8584069 14.3273592,14.7865245 L12.0342181,12.4994657 C4.89281227,20.1589951 0.396685842,30.3109951 3.55271368e-14,41.5059363 Z" id="Path"></path>
                            <path d="M2.84217094e-14,44.7385245 C0.396685842,55.9398186 4.89811555,66.0981716 12.0490673,73.757701 L14.3411478,71.4706422 C7.77567889,64.397701 3.6316907,55.0461716 3.24030815,44.7385245 L2.84217094e-14,44.7385245 Z" id="Path"></path>
                            <path d="M57.8503721,74.5793481 L57.8503721,78.0459363 C62.9712257,76.1686422 67.5649326,73.199701 71.3482973,69.4239363 L69.0604595,67.1379363 C65.8816695,70.3091128 62.0770916,72.857701 57.8503721,74.5793481 Z" id="Path"></path>
                            <path d="M57.8503721,82.829701 L57.8503721,86.2147598 C65.1179962,84.0579363 71.618765,80.1201716 76.840381,74.9075833 L74.5514825,72.6215833 C69.9270165,77.2380539 64.223862,80.7766422 57.8503721,82.829701 Z" id="Path"></path>
                            <path d="M14.3400871,76.043701 C19.348511,80.6929951 25.4186529,84.2178186 32.1485237,86.2147598 L32.1485237,82.829701 C26.3096051,80.9481716 21.0328349,77.8193481 16.6321676,73.7555833 L14.3400871,76.043701 Z" id="Path"></path>
                        </g>
                        <path d="M43.3808848,1.62603529 L43.3808848,23.3340353 C38.0266866,23.7258 33.2134237,26.0583882 29.6379478,29.6255647 C25.7071517,33.5506235 23.2750645,38.9728588 23.2750645,44.9615647 C23.2750645,50.9502706 25.7071517,56.3725059 29.6379478,60.2965059 C33.2134237,63.8647412 38.0266866,66.1952118 43.3808848,66.5890941 L43.3808848,89.8842706 C44.463816,89.9223882 45.5372012,89.9223882 46.6190717,89.8842706 L46.6190717,66.5890941 C51.9732699,66.1952118 56.7875935,63.8647412 60.3630694,60.2965059 L58.0731102,58.0105059 C54.7267363,61.3500353 50.1043917,63.4168588 45.0005086,63.4168588 C39.8955648,63.4168588 35.2732202,61.3500353 31.927907,58.0105059 C28.5815331,54.6709765 26.5132513,50.0566235 26.5132513,44.9615647 C26.5132513,39.8654471 28.5815331,35.2510941 31.927907,31.9115647 C35.2742809,28.5720353 39.8955648,26.5073294 45.0005086,26.5073294 C50.1043917,26.5073294 54.7267363,28.5720353 58.0731102,31.9115647 L60.3630694,29.6255647 C56.7875935,26.0583882 51.9732699,23.7258 46.6190717,23.3340353 L46.6190717,0.0378 C46.0781364,0.0187411765 45.5393225,0.00921176471 45.0005086,0.00921176471 C44.4616947,0.00921176471 43.9228807,0.0187411765 43.3808848,0.0378 L43.3808848,1.62603529 Z" id="Path" fill="#FFFFFF"></path>
                        <g id="Group-2" transform="translate(15.372125, 0.306644)" fill="#FFFFFF">
                            <path d="M35.2445639,19.0462149 C40.2391993,20.1336266 44.7045667,22.6398619 48.1941293,26.1223325 L50.4830278,23.8352737 C47.167413,20.5264502 43.0647904,18.0000972 38.4816901,16.5622149 L38.4816901,0.572920754 C37.4167901,0.359038401 36.337041,0.185391342 35.2445639,0.0498619301 L35.2445639,19.0462149 Z" id="Path"></path>
                            <path d="M20.774016,0.572920754 L20.774016,16.5622149 C16.1909156,18.001156 12.0882931,20.5253913 8.77373893,23.8352737 C3.43651124,29.1643325 0.134684966,36.5242149 0.134684966,44.6549208 C0.134684966,52.7845678 3.43651124,60.145509 8.77373893,65.473509 C12.0882931,68.7833913 16.1909156,71.3086855 20.774016,72.7465678 L20.774016,88.7358619 C21.8399766,88.9486855 22.9197257,89.1244502 24.0122028,89.2589208 L24.0122028,70.2625678 C19.0165068,69.1762149 14.5511394,66.6689208 11.0636981,63.187509 C6.3108926,58.4439796 3.37393245,51.8919796 3.3728718,44.6549208 C3.3728718,37.4178619 6.3108926,30.8637443 11.0636981,26.1223325 C14.5511394,22.6398619 19.0165068,20.1336266 24.0122028,19.0462149 L24.0122028,0.0498619301 C22.9197257,0.184332518 21.8399766,0.359038401 20.774016,0.572920754 Z" id="Path"></path>
                            <path d="M35.2445639,70.2625678 L35.2445639,89.2589208 C36.337041,89.1244502 37.4167901,88.9486855 38.4816901,88.7358619 L38.4816901,72.7465678 C43.0647904,71.3086855 47.167413,68.7833913 50.4830278,65.473509 L48.1941293,63.187509 C44.7045667,66.6689208 40.2391993,69.1762149 35.2445639,70.2625678 Z" id="Path"></path>
                        </g>
                    </g>
                </g>
            </g>
        </g>
    </g>
</svg>